<?xml version="1.0" encoding="UTF-8"?>
<!DOCTYPE svg PUBLIC "-//W3C//DTD SVG 1.1//EN" "http://www.w3.org/Graphics/SVG/1.1/DTD/svg11.dtd">
<svg xmlns="http://www.w3.org/2000/svg" version="1.1" width="1316px" height="1126px" style="shape-rendering:geometricPrecision; text-rendering:geometricPrecision; image-rendering:optimizeQuality; fill-rule:evenodd; clip-rule:evenodd" xmlns:xlink="http://www.w3.org/1999/xlink">
<g><path style="opacity:0.985" fill="#2495ed" d="M 669.5,-0.5 C 701.5,-0.5 733.5,-0.5 765.5,-0.5C 768.557,1.82643 770.224,4.99309 770.5,9C 769.167,34.3333 769.167,59.6667 770.5,85C 769.989,89.0291 767.989,92.0291 764.5,94C 733.167,94.6667 701.833,94.6667 670.5,94C 668.714,93.2155 667.214,92.0488 666,90.5C 664.367,62.5487 664.034,34.5487 665,6.5C 665.53,3.41501 667.03,1.08167 669.5,-0.5 Z"/></g>
<g><path style="opacity:0.987" fill="#2495ed" d="M 424.5,112.5 C 455.502,112.333 486.502,112.5 517.5,113C 519.939,113.774 521.773,115.274 523,117.5C 523.983,146.586 523.65,175.586 522,204.5C 521.097,205.701 519.931,206.535 518.5,207C 486.081,207.985 453.748,207.652 421.5,206C 420.299,205.097 419.465,203.931 419,202.5C 418.333,174.5 418.333,146.5 419,118.5C 420.021,115.65 421.854,113.65 424.5,112.5 Z"/></g>
<g><path style="opacity:0.987" fill="#2495ed" d="M 548.5,112.5 C 579.502,112.333 610.502,112.5 641.5,113C 644.333,113.833 646.167,115.667 647,118.5C 647.983,147.253 647.65,175.92 646,204.5C 645.097,205.701 643.931,206.535 642.5,207C 610.081,207.985 577.748,207.652 545.5,206C 544.299,205.097 543.465,203.931 543,202.5C 542.333,174.167 542.333,145.833 543,117.5C 544.406,115.256 546.239,113.59 548.5,112.5 Z"/></g>
<g><path style="opacity:0.985" fill="#2495ed" d="M 670.5,112.5 C 702.587,112.015 734.587,112.515 766.5,114C 768.87,116.502 770.203,119.502 770.5,123C 769.167,148.333 769.167,173.667 770.5,199C 770.094,202.415 768.428,205.082 765.5,207C 733.5,207.667 701.5,207.667 669.5,207C 666.601,205.373 665.101,202.873 665,199.5C 664.333,173.167 664.333,146.833 665,120.5C 665.49,116.854 667.323,114.187 670.5,112.5 Z"/></g>
<g><path style="opacity:0.996" fill="#2495ed" d="M 995.5,137.5 C 1042.8,161.646 1071.8,199.813 1082.5,252C 1096.27,250.756 1110.11,249.922 1124,249.5C 1151.03,248.838 1176.53,254.671 1200.5,267C 1205.62,270.453 1210.45,274.286 1215,278.5C 1212.38,292.754 1206.71,305.754 1198,317.5C 1170.18,353.664 1133.35,373.497 1087.5,377C 1078.51,377.5 1069.51,377.666 1060.5,377.5C 981.637,592.174 827.637,706.008 598.5,719C 541.563,722.254 485.23,717.921 429.5,706C 389.547,697.849 353.214,681.849 320.5,658C 280.397,623.19 252.231,580.357 236,529.5C 217.774,474.916 210.107,418.916 213,361.5C 216.596,350.904 223.762,344.071 234.5,341C 461.466,339.672 688.466,339.005 915.5,339C 933.344,337.206 950.677,333.206 967.5,327C 970.661,325.587 973.661,323.92 976.5,322C 954.157,283.579 949.657,243.079 963,200.5C 970.182,177.465 981.015,156.465 995.5,137.5 Z"/></g>
<g><path style="opacity:0.987" fill="#2495ed" d="M 300.5,226.5 C 332.835,226.333 365.168,226.5 397.5,227C 399.049,228.214 400.215,229.714 401,231.5C 401.983,260.253 401.65,288.92 400,317.5C 398.786,319.049 397.286,320.215 395.5,321C 364.5,321.667 333.5,321.667 302.5,321C 300.061,320.226 298.227,318.726 297,316.5C 296.333,288.167 296.333,259.833 297,231.5C 297.997,229.677 299.164,228.01 300.5,226.5 Z"/></g>
<g><path style="opacity:0.987" fill="#2495ed" d="M 422.5,226.5 C 454.835,226.333 487.168,226.5 519.5,227C 521.049,228.214 522.215,229.714 523,231.5C 523.667,259.5 523.667,287.5 523,315.5C 522.167,318.333 520.333,320.167 517.5,321C 486.5,321.667 455.5,321.667 424.5,321C 421.667,320.167 419.833,318.333 419,315.5C 418.333,287.5 418.333,259.5 419,231.5C 419.997,229.677 421.164,228.01 422.5,226.5 Z"/></g>
<g><path style="opacity:0.987" fill="#2495ed" d="M 546.5,226.5 C 578.835,226.333 611.168,226.5 643.5,227C 645.049,228.214 646.215,229.714 647,231.5C 647.667,259.5 647.667,287.5 647,315.5C 646.167,318.333 644.333,320.167 641.5,321C 610.5,321.667 579.5,321.667 548.5,321C 545.667,320.167 543.833,318.333 543,315.5C 542.333,287.5 542.333,259.5 543,231.5C 543.997,229.677 545.164,228.01 546.5,226.5 Z"/></g>
<g><path style="opacity:0.985" fill="#2495ed" d="M 669.5,226.5 C 702.254,226.014 734.92,226.514 767.5,228C 768.921,230.861 769.921,233.861 770.5,237C 769.167,262.333 769.167,287.667 770.5,313C 769.703,316.604 767.703,319.271 764.5,321C 732.414,321.985 700.414,321.652 668.5,320C 666.232,318.442 665.066,316.276 665,313.5C 664.333,286.833 664.333,260.167 665,233.5C 665.53,230.415 667.03,228.082 669.5,226.5 Z"/></g>
<g><path style="opacity:0.987" fill="#2495ed" d="M 792.5,226.5 C 824.835,226.333 857.168,226.5 889.5,227C 891.049,228.214 892.215,229.714 893,231.5C 893.667,259.833 893.667,288.167 893,316.5C 891.773,318.726 889.939,320.226 887.5,321C 855.748,321.985 824.081,321.651 792.5,320C 790.951,318.786 789.785,317.286 789,315.5C 788.333,287.5 788.333,259.5 789,231.5C 789.997,229.677 791.164,228.01 792.5,226.5 Z"/></g>
<g><path style="opacity:0.978" fill="#2495ed" d="M 123.5,1125.5 C 115.167,1125.5 106.833,1125.5 98.5,1125.5C 55.8657,1118.71 25.3657,1095.71 7,1056.5C 3.53176,1047.28 1.03176,1037.95 -0.5,1028.5C -0.5,1018.5 -0.5,1008.5 -0.5,998.5C 6.80097,957.346 29.4676,927.846 67.5,910C 103.627,896.613 138.294,899.613 171.5,919C 174.333,921.167 177.167,923.333 180,925.5C 180.333,891.167 180.667,856.833 181,822.5C 185.378,809.22 194.544,804.053 208.5,807C 217.1,810.262 221.934,816.428 223,825.5C 223.667,889.833 223.667,954.167 223,1018.5C 218.644,1069.38 192.477,1103.55 144.5,1121C 137.43,1122.85 130.43,1124.35 123.5,1125.5 Z M 100.5,944.5 C 130.814,942.076 154.314,953.409 171,978.5C 188.807,1016.44 180.973,1047.94 147.5,1073C 113.438,1090.31 83.2711,1085.14 57,1057.5C 37.1195,1029.62 36.4528,1001.29 55,972.5C 66.7585,957.565 81.9252,948.231 100.5,944.5 Z"/></g>
<g><path style="opacity:0.974" fill="#2495ed" d="M 880.5,1125.5 C 876.833,1125.5 873.167,1125.5 869.5,1125.5C 865.498,1124.07 861.998,1121.74 859,1118.5C 829.361,1084.36 799.194,1050.69 768.5,1017.5C 761.086,1022.62 753.586,1027.62 746,1032.5C 745.667,1057.5 745.333,1082.5 745,1107.5C 743.161,1116.5 737.994,1122.5 729.5,1125.5C 725.833,1125.5 722.167,1125.5 718.5,1125.5C 709.978,1122.47 704.811,1116.47 703,1107.5C 702.333,1012.83 702.333,918.167 703,823.5C 707.247,809.955 716.414,804.455 730.5,807C 738.192,810.023 743.025,815.523 745,823.5C 745.333,876.167 745.667,928.833 746,981.5C 786.245,954.96 826.745,928.793 867.5,903C 887.359,899.857 896.859,908.357 896,928.5C 894.881,933.239 892.381,937.072 888.5,940C 860.663,957.751 832.996,975.751 805.5,994C 835.038,1026.54 864.205,1059.37 893,1092.5C 899.929,1107.82 895.762,1118.82 880.5,1125.5 Z"/></g>
<g><path style="opacity:0.981" fill="#2495ed" d="M 368.5,1125.5 C 359.833,1125.5 351.167,1125.5 342.5,1125.5C 291.359,1116.53 259.192,1086.86 246,1036.5C 237.943,975.77 261.776,932.937 317.5,908C 368.327,892.837 410.827,905.337 445,945.5C 467.148,976.504 473.148,1010.5 463,1047.5C 446.626,1092.06 415.126,1118.06 368.5,1125.5 Z M 345.5,944.5 C 376.802,942.067 400.636,954.067 417,980.5C 431.985,1013.29 426.485,1042.12 400.5,1067C 371.99,1088.13 342.99,1088.8 313.5,1069C 288.362,1047.23 280.862,1020.4 291,988.5C 301.709,964.419 319.876,949.752 345.5,944.5 Z"/></g>
<g><path style="opacity:0.979" fill="#2495ed" d="M 612.5,1125.5 C 604.167,1125.5 595.833,1125.5 587.5,1125.5C 542.41,1118.59 511.244,1093.92 494,1051.5C 478.412,996.935 493.578,952.768 539.5,919C 577.602,896.927 616.268,895.927 655.5,916C 662.282,920.448 668.782,925.281 675,930.5C 684.072,944.599 681.572,956.099 667.5,965C 662.167,967 656.833,967 651.5,965C 645.5,961 639.5,957 633.5,953C 598.078,936.898 567.911,943.732 543,973.5C 527.498,998.21 526.498,1023.54 540,1049.5C 560.078,1078.2 587.244,1088.36 621.5,1080C 630.862,1076.62 639.195,1071.62 646.5,1065C 658.484,1059.04 668.651,1061.21 677,1071.5C 681.954,1082.95 679.787,1092.78 670.5,1101C 653.327,1114.42 633.994,1122.59 612.5,1125.5 Z"/></g>
<g><path style="opacity:0.977" fill="#2495ed" d="M 1315.5,923.5 C 1315.5,927.833 1315.5,932.167 1315.5,936.5C 1307.22,951.978 1295.22,955.478 1279.5,947C 1240.4,938.637 1211.9,952.137 1194,987.5C 1192.36,992.077 1191.02,996.744 1190,1001.5C 1189.96,1038.2 1189.29,1074.87 1188,1111.5C 1185.23,1118.44 1180.39,1123.11 1173.5,1125.5C 1169.83,1125.5 1166.17,1125.5 1162.5,1125.5C 1154.85,1122.68 1149.69,1117.35 1147,1109.5C 1146.33,1045.83 1146.33,982.167 1147,918.5C 1149.77,907.739 1156.77,902.072 1168,901.5C 1181.55,903.719 1188.88,911.719 1190,925.5C 1218.16,904.255 1249.66,897.089 1284.5,904C 1293.23,905.701 1301.23,909.034 1308.5,914C 1311.48,916.825 1313.81,919.992 1315.5,923.5 Z"/></g>
<g><path style="opacity:0.978" fill="#2495ed" d="M 1028.5,1125.5 C 1018.17,1125.5 1007.83,1125.5 997.5,1125.5C 955.198,1117.71 925.365,1094.05 908,1054.5C 890.211,994.848 907.378,948.348 959.5,915C 983.224,902.944 1008.22,899.277 1034.5,904C 1078.35,914.189 1107.19,940.689 1121,983.5C 1124.58,996.722 1125.25,1010.06 1123,1023.5C 1119.41,1030.09 1113.91,1033.93 1106.5,1035C 1053.16,1035.17 999.83,1035.67 946.5,1036.5C 958.899,1066.21 981.232,1081.88 1013.5,1083.5C 1033.17,1083.16 1049.83,1076 1063.5,1062C 1078.74,1055.85 1089.24,1060.35 1095,1075.5C 1096.46,1083.78 1094.3,1090.94 1088.5,1097C 1071.15,1112.17 1051.15,1121.67 1028.5,1125.5 Z M 1004.5,944.5 C 1040.55,943.176 1065.55,959.009 1079.5,992C 1035.16,992.833 990.83,992.667 946.5,991.5C 957.078,964.895 976.411,949.229 1004.5,944.5 Z"/></g>
<g><path style="opacity:0.785" fill="#2495ed" d="M 1235.5,1094.5 C 1251.49,1095.47 1256.66,1103.47 1251,1118.5C 1244.24,1125.42 1236.74,1126.25 1228.5,1121C 1220.17,1109.2 1222.5,1100.37 1235.5,1094.5 Z M 1235.5,1098.5 C 1243.68,1097.68 1248.34,1101.34 1249.5,1109.5C 1249.32,1112.19 1248.32,1114.52 1246.5,1116.5C 1245.72,1114.22 1244.72,1112.05 1243.5,1110C 1246.45,1106.45 1245.78,1103.78 1241.5,1102C 1239.17,1101.33 1236.83,1101.33 1234.5,1102C 1232.59,1106.86 1231.92,1112.02 1232.5,1117.5C 1233.83,1117.5 1235.17,1117.5 1236.5,1117.5C 1236.5,1115.5 1236.5,1113.5 1236.5,1111.5C 1239.66,1111.53 1241.32,1113.2 1241.5,1116.5C 1242.73,1117.28 1244.06,1117.78 1245.5,1118C 1232.79,1122.7 1227.29,1118.2 1229,1104.5C 1230.49,1101.69 1232.66,1099.69 1235.5,1098.5 Z M 1236.5,1105.5 C 1237.83,1105.5 1239.17,1105.5 1240.5,1105.5C 1240.5,1106.5 1240.5,1107.5 1240.5,1108.5C 1239.17,1108.5 1237.83,1108.5 1236.5,1108.5C 1236.5,1107.5 1236.5,1106.5 1236.5,1105.5 Z"/></g>
</svg>
