<?xml version="1.0" encoding="UTF-8"?>
<!DOCTYPE svg PUBLIC "-//W3C//DTD SVG 1.1//EN" "http://www.w3.org/Graphics/SVG/1.1/DTD/svg11.dtd">
<svg xmlns="http://www.w3.org/2000/svg" version="1.1" width="1280px" height="672px" style="shape-rendering:geometricPrecision; text-rendering:geometricPrecision; image-rendering:optimizeQuality; fill-rule:evenodd; clip-rule:evenodd" xmlns:xlink="http://www.w3.org/1999/xlink">
<g><path style="opacity:0.965" fill="#08536a" d="M 822.5,6.5 C 849.729,8.44941 873.395,18.6161 893.5,37C 915.306,37.3675 936.306,41.7009 956.5,50C 1014.95,80.7807 1059.78,125.281 1091,183.5C 1105.07,219.048 1121.07,253.715 1139,287.5C 1140.5,289 1142,290.5 1143.5,292C 1181.46,306.325 1214.96,327.491 1244,355.5C 1247.29,360.454 1250.95,365.12 1255,369.5C 1255.49,371.134 1255.66,372.801 1255.5,374.5C 1232.81,379.004 1210.14,383.67 1187.5,388.5C 1188.81,392.004 1190.81,395.17 1193.5,398C 1203.99,405.749 1214.99,412.749 1226.5,419C 1229.83,421.667 1233.17,424.333 1236.5,427C 1246.67,437.833 1256.83,448.667 1267,459.5C 1274.2,473.356 1272.04,474.189 1260.5,462C 1242.27,448.379 1222.6,437.046 1201.5,428C 1188.48,419.981 1176.98,410.148 1167,398.5C 1163.17,392.858 1160.51,386.858 1159,380.5C 1160.17,379.333 1161.33,378.167 1162.5,377C 1185.71,368.392 1209.21,363.892 1233,363.5C 1230.97,361.228 1228.81,359.061 1226.5,357C 1210.89,347.058 1195.56,336.725 1180.5,326C 1166.26,319.547 1151.59,314.213 1136.5,310C 1132.21,308.576 1128.37,306.409 1125,303.5C 1118.32,294.149 1112.65,284.149 1108,273.5C 1094.06,243.285 1080.39,212.952 1067,182.5C 1037.41,130.241 995.575,91.0747 941.5,65C 936.167,63 930.833,61 925.5,59C 912.215,57.26 898.882,55.9266 885.5,55C 869.089,41.6252 850.756,31.6252 830.5,25C 818.172,22.6607 813.338,27.494 816,39.5C 818.079,43.9926 820.412,48.326 823,52.5C 837.023,67.8701 848.023,85.2034 856,104.5C 860.695,119.287 865.695,133.954 871,148.5C 876.03,159.899 883.03,169.899 892,178.5C 895.748,183.818 896.414,189.485 894,195.5C 879.908,227.598 877.242,260.598 886,294.5C 888.963,305.265 894.13,314.765 901.5,323C 903.345,324.128 905.345,324.628 907.5,324.5C 908.245,308.117 911.078,292.117 916,276.5C 920.138,267.592 925.971,260.425 933.5,255C 951.078,303.607 976.912,346.107 1011,382.5C 991.496,367.565 973.163,351.232 956,333.5C 946.817,321.146 939.15,307.813 933,293.5C 930.758,306.196 928.425,318.862 926,331.5C 918.447,344.235 908.28,346.735 895.5,339C 881.054,325.615 872.221,309.115 869,289.5C 864.334,268.502 864.334,247.502 869,226.5C 871.962,214.148 875.462,201.982 879.5,190C 870.632,179.113 863.132,167.28 857,154.5C 850.204,137.444 844.204,120.111 839,102.5C 837.333,99.1667 835.667,95.8333 834,92.5C 825,80.5 816,68.5 807,56.5C 798.799,44.8762 797.466,32.5428 803,19.5C 807.83,12.4766 814.33,8.14326 822.5,6.5 Z"/></g>
<g><path style="opacity:0.936" fill="#08536a" d="M 896.5,86.5 C 913.872,86.0398 921.039,94.3731 918,111.5C 916.859,113.609 915.359,115.442 913.5,117C 912.668,117.688 912.002,117.521 911.5,116.5C 909,111.5 906.5,106.5 904,101.5C 900.31,97.3114 896.81,92.978 893.5,88.5C 894.602,87.8243 895.602,87.1577 896.5,86.5 Z"/></g>
<g><path style="opacity:0.984" fill="#03536a" d="M 45.5,407.5 C 62.8005,405.866 76.6338,411.866 87,425.5C 108.517,474.53 130.017,523.53 151.5,572.5C 171.95,527.994 192.116,483.327 212,438.5C 218.918,418.583 232.918,408.25 254,407.5C 267.133,407.823 279.3,411.323 290.5,418C 294.753,422.674 297.253,428.174 298,434.5C 298.5,491.499 298.667,548.499 298.5,605.5C 284.167,605.5 269.833,605.5 255.5,605.5C 255.667,551.166 255.5,496.832 255,442.5C 232.941,492.285 210.608,541.952 188,591.5C 179.77,604.032 168.104,609.699 153,608.5C 138.259,609.626 126.592,604.292 118,592.5C 95.0594,542.953 72.3927,493.286 50,443.5C 49.5,497.499 49.3333,551.499 49.5,605.5C 35.1667,605.5 20.8333,605.5 6.5,605.5C 6.03204,547.141 6.53204,488.808 8,430.5C 10.9642,419.567 18.1309,413.067 29.5,411C 34.9539,409.745 40.2872,408.578 45.5,407.5 Z"/></g>
<g><path style="opacity:0.987" fill="#c67f02" d="M 621.5,411.5 C 665.167,411.5 708.833,411.5 752.5,411.5C 752.5,421.167 752.5,430.833 752.5,440.5C 709.832,440.333 667.165,440.5 624.5,441C 619.854,441.326 615.521,442.66 611.5,445C 609.959,446.579 608.792,448.413 608,450.5C 607.333,460.833 607.333,471.167 608,481.5C 609.833,487.333 613.667,491.167 619.5,493C 642.783,494.293 666.117,494.959 689.5,495C 710.786,495.312 729.286,502.479 745,516.5C 747.194,519.554 748.861,522.888 750,526.5C 750.667,541.167 750.667,555.833 750,570.5C 748.22,577.946 744.386,584.113 738.5,589C 726.549,597.637 713.216,602.97 698.5,605C 653.501,605.5 608.501,605.667 563.5,605.5C 563.5,596.167 563.5,586.833 563.5,577.5C 602.835,577.667 642.168,577.5 681.5,577C 689.121,577.013 696.121,575.013 702.5,571C 704.123,568.92 705.623,566.754 707,564.5C 707.667,554.167 707.667,543.833 707,533.5C 702.345,525.935 695.511,522.102 686.5,522C 666.5,521.667 646.5,521.333 626.5,521C 607.726,520.396 590.726,514.729 575.5,504C 565.511,494.069 561.844,482.069 564.5,468C 560.651,443.679 569.984,427.013 592.5,418C 602.01,414.468 611.676,412.301 621.5,411.5 Z"/></g>
<g><path style="opacity:0.993" fill="#c57f03" d="M 1011.5,411.5 C 1025.83,411.5 1040.17,411.5 1054.5,411.5C 1054.33,462.168 1054.5,512.834 1055,563.5C 1057.12,569.995 1061.62,573.828 1068.5,575C 1073.1,576.061 1077.77,576.727 1082.5,577C 1120.83,577.5 1159.17,577.667 1197.5,577.5C 1197.5,586.833 1197.5,596.167 1197.5,605.5C 1153.14,605.951 1108.81,605.451 1064.5,604C 1046.51,602.588 1031.35,595.422 1019,582.5C 1015.29,577.41 1012.96,571.743 1012,565.5C 1011.5,514.168 1011.33,462.834 1011.5,411.5 Z"/></g>
<g><path style="opacity:0.991" fill="#c67f02" d="M 841.5,411.5 C 867.716,412.598 893.882,412.598 920,411.5C 938.172,411.669 955.006,416.502 970.5,426C 978.547,432.261 983.381,440.427 985,450.5C 985.667,489.833 985.667,529.167 985,568.5C 982.634,582.531 974.801,592.031 961.5,597C 975.134,608.966 988.467,621.299 1001.5,634C 985.167,634.667 968.833,634.667 952.5,634C 941.534,624.703 930.868,615.036 920.5,605C 890.869,606.406 861.202,606.739 831.5,606C 815.941,604.594 801.941,599.261 789.5,590C 782.271,583.042 778.105,574.542 777,564.5C 776.333,527.167 776.333,489.833 777,452.5C 779.664,436.01 788.831,424.843 804.5,419C 816.628,414.741 828.961,412.241 841.5,411.5 Z M 848.5,440.5 C 872.502,440.333 896.502,440.5 920.5,441C 931.641,441.142 939.808,445.975 945,455.5C 945.667,491.167 945.667,526.833 945,562.5C 943.351,568.151 939.851,571.651 934.5,573C 925.131,563.963 915.465,555.296 905.5,547C 889.167,546.333 872.833,546.333 856.5,547C 867.201,557.369 878.201,567.369 889.5,577C 874.5,577.667 859.5,577.667 844.5,577C 832.738,575.397 825.571,568.897 823,557.5C 822.333,524.5 822.333,491.5 823,458.5C 824.695,450.47 829.528,445.303 837.5,443C 841.312,442.205 844.979,441.371 848.5,440.5 Z"/></g>
<g><path style="opacity:0.977" fill="#01536a" d="M 489.5,469.5 C 503.833,469.5 518.167,469.5 532.5,469.5C 532.667,521.501 532.5,573.501 532,625.5C 528.515,641.324 519.015,651.824 503.5,657C 493.517,660.863 483.184,663.197 472.5,664C 426.168,664.5 379.835,664.667 333.5,664.5C 333.5,654.833 333.5,645.167 333.5,635.5C 378.835,635.667 424.168,635.5 469.5,635C 487.415,632.537 494.082,622.37 489.5,604.5C 456.165,604.667 422.832,604.5 389.5,604C 373.49,602.775 358.823,597.775 345.5,589C 339.7,583.889 335.533,577.722 333,570.5C 332.5,537.168 332.333,503.835 332.5,470.5C 346.516,470.167 360.516,470.501 374.5,471.5C 374.709,472.086 375.043,472.586 375.5,473C 375.167,502.667 374.833,532.333 374.5,562C 376.48,572.197 382.814,577.53 393.5,578C 425.498,578.5 457.498,578.667 489.5,578.5C 489.5,542.167 489.5,505.833 489.5,469.5 Z"/></g>
<g><path style="opacity:0.903" fill="#c57f04" d="M 1207.5,577.5 C 1215.5,577.5 1223.5,577.5 1231.5,577.5C 1231.5,579.167 1231.5,580.833 1231.5,582.5C 1228.83,582.5 1226.17,582.5 1223.5,582.5C 1223.5,590.5 1223.5,598.5 1223.5,606.5C 1221.17,606.5 1218.83,606.5 1216.5,606.5C 1216.5,598.5 1216.5,590.5 1216.5,582.5C 1213.5,582.5 1210.5,582.5 1207.5,582.5C 1207.5,580.833 1207.5,579.167 1207.5,577.5 Z"/></g>
<g><path style="opacity:0.893" fill="#c37f06" d="M 1236.5,577.5 C 1239.9,577.18 1243.23,577.513 1246.5,578.5C 1248.57,583.873 1250.74,589.207 1253,594.5C 1255.65,589.401 1257.81,584.068 1259.5,578.5C 1262.77,577.513 1266.1,577.18 1269.5,577.5C 1269.5,587.167 1269.5,596.833 1269.5,606.5C 1267.21,606.756 1265.04,606.423 1263,605.5C 1262.67,599.833 1262.33,594.167 1262,588.5C 1259.83,594.35 1257.66,600.183 1255.5,606C 1253.74,606.798 1252.07,606.631 1250.5,605.5C 1248.33,599.833 1246.17,594.167 1244,588.5C 1243.67,594.167 1243.33,599.833 1243,605.5C 1241.27,606.576 1239.44,606.743 1237.5,606C 1236.51,596.583 1236.18,587.083 1236.5,577.5 Z"/></g>
</svg>
