<?xml version="1.0" encoding="utf-8"?>
<!-- Generator: Adobe Illustrator 25.0.1, SVG Export Plug-In . SVG Version: 6.00 Build 0)  -->
<svg version="1.0" id="Layer_1" xmlns="http://www.w3.org/2000/svg" xmlns:xlink="http://www.w3.org/1999/xlink" x="0px" y="0px"
	 viewBox="0 0 301.6 178.1" style="enable-background:new 0 0 301.6 178.1;" xml:space="preserve">
<style type="text/css">
	.st0{fill:#A9B5AF;}
	.st1{fill:#FF6600;}
</style>
<path class="st0" d="M279,103.3l-1.8,5.7h-0.6l-1.8-5.7l0,0v5.7h-0.5v-6.2h0.9l1.7,5.4l0,0l1.7-5.4h0.9v6.2H279L279,103.3L279,103.3
	L279,103.3z"/>
<polygon class="st0" points="273.7,102.8 271.1,102.8 270.6,102.8 268.1,102.8 268.1,103.3 270.6,103.3 270.6,109 271.1,109 
	271.1,103.3 273.7,103.3 "/>
<path class="st0" d="M215,108.9h-3.6l-11.9-36.5v36.5h-3.2V69.3h5.7l11.1,34.7h0.1l11.1-34.7h5.6v39.7h-3.1V72.4L215,108.9z"/>
<path class="st1" d="M68.8,69.2v39.7h3.4V91H77c1.3,0,2.5,0.2,3.7,0.6c3.5,1.3,3.9,5.4,4.5,8l2,9.4h3.5l-2.2-10.7
	c-0.7-3.2-1.1-4.6-2-6c-1.2-1.8-4.6-2.8-4.6-2.8c5.6-1.1,8-4.8,8-9.9c0-4.7-2.3-10.1-12.7-10.1L68.8,69.2L68.8,69.2z M72.2,72.4h4.5
	c9.1,0,9.6,4.8,9.6,7c0,1.8-0.3,8.4-11,8.4h-3.1L72.2,72.4L72.2,72.4L72.2,72.4z"/>
<path class="st1" d="M94.8,88.1h3.5c0.3-1.6,1-4.4,5.7-4.4c6.1,0,5.9,5.3,5.9,7.4v2.4c0,0-2,0-3.2,0.1c-4.7,0.4-12.3,1.6-12.3,8.7
	s5.9,7.3,7,7.3c1.7,0,3.3-0.4,4.8-1.1c1.5-0.8,2.7-1.9,3.7-3.3h0.1v3.9h2.8V90.2c0-2.8,0.3-9.3-8.6-9.3S94.8,86.8,94.8,88.1z
	 M109.9,96.2c0,1.1-0.1,2.1-0.2,3.2c-0.6,3.9-3.9,6.7-7.9,6.7c-2,0.2-3.9-1.3-4-3.3c0-0.1,0-0.2,0-0.4c0-1.4,0.6-4.8,6.1-5.9
	C105.1,96.2,109.9,96.2,109.9,96.2z"/>
<path class="st1" d="M117.5,69.2v28.5c0,1.5,0.1,11.8,9.5,11.8c2.3,0,10.6-0.8,10.6-14s-7.3-14.6-9.5-14.6c-3.6,0-6.7,2.4-7.6,5.8
	h-0.1V69.2H117.5L117.5,69.2z M134.2,95.5c0,11.1-6.2,11.3-7.1,11.3s-6.5,0-6.5-10.8c0-9,4.3-12.2,7.3-12.2
	C130.8,83.7,134.2,86.7,134.2,95.5L134.2,95.5z"/>
<path class="st1" d="M142.1,69.2v28.5c0,1.5,0,11.8,9.5,11.8c2.3,0,10.6-0.8,10.6-14s-7.3-14.6-9.5-14.6c-3.6,0-6.7,2.4-7.6,5.8H145
	V69.2H142.1L142.1,69.2z M158.8,95.5c0,11.1-6.2,11.3-7.1,11.3s-6.5,0-6.5-10.8c0-9,4.3-12.2,7.3-12.2S158.8,86.7,158.8,95.5
	L158.8,95.5z"/>
<path class="st1" d="M170,81.5v27.4h-2.9V81.5H170z"/>
<path class="st1" d="M170.6,69.3v4.6h-4.2v-4.6H170.6z"/>
<path class="st1" d="M190,109.3c-1,0.1-1.9,0.2-2.9,0.2c-1.9,0.1-3.9-0.4-5.4-1.6c-1.2-1-1.8-2.8-1.8-5.2V84.3h-4.4v-2.7h4.4v-6.3
	l2.9-1.9v8.2h7.3v2.7h-7.3v17.6c0,0.8-0.2,4.9,4.1,4.9c1.1,0,2.1-0.2,3.2-0.5V109.3L190,109.3L190,109.3z"/>
<path class="st1" d="M60.4,85H47.6c-0.9,0-1.6-0.7-1.6-1.6c0,0,0,0,0,0V70.6c0-0.9-0.7-1.6-1.6-1.6c0,0,0,0,0,0h-4.8
	c-0.9,0-1.6,0.7-1.6,1.6c0,0,0,0,0,0v12.8c0,0.9-0.7,1.6-1.6,1.6c0,0,0,0,0,0h-4.8c-0.9,0-1.6-0.7-1.6-1.6c0,0,0,0,0,0V70.6
	c0-0.9-0.7-1.6-1.6-1.6c0,0,0,0,0,0h-4.8c-0.9,0-1.6,0.7-1.6,1.6c0,0,0,0,0,0v36.7c0,0.9,0.7,1.6,1.6,1.6c0,0,0,0,0,0h36.7
	c0.9,0,1.6-0.7,1.6-1.6c0,0,0,0,0,0V86.6C62,85.7,61.3,85,60.4,85C60.4,85,60.4,85,60.4,85z M54,98.5c0,1.3-1.1,2.4-2.4,2.4
	c0,0,0,0,0,0h-3.2c-1.3,0-2.4-1.1-2.4-2.4c0,0,0,0,0,0v-3.2c0-1.3,1.1-2.4,2.4-2.4c0,0,0,0,0,0h3.2c1.3,0,2.4,1.1,2.4,2.4
	c0,0,0,0,0,0V98.5z"/>
<path class="st0" d="M256.2,106.2c3.7-3.1,5.6-9,5.6-17.5c0-12.3-4.6-20.2-13.3-20.2c-8.1,0-13.8,6.6-13.8,20.2s4.8,20.2,13.6,20.2
	h0.4l0,0h16v-3.3L256.2,106.2z M238.5,88.8c0-11.3,3.2-16.8,10-16.8s9.6,6.6,9.6,16.8s-2.5,16.8-9.7,16.8S238.5,100.1,238.5,88.8z"
	/>
</svg>
