<?xml version="1.0" encoding="UTF-8"?>
<!DOCTYPE svg PUBLIC "-//W3C//DTD SVG 1.1//EN" "http://www.w3.org/Graphics/SVG/1.1/DTD/svg11.dtd">
<svg xmlns="http://www.w3.org/2000/svg" version="1.1" width="2045px" height="2048px" style="shape-rendering:geometricPrecision; text-rendering:geometricPrecision; image-rendering:optimizeQuality; fill-rule:evenodd; clip-rule:evenodd" xmlns:xlink="http://www.w3.org/1999/xlink">
<g><path style="opacity:1" fill="#d8281a" d="M 1035.5,-0.5 C 1035.83,-0.5 1036.17,-0.5 1036.5,-0.5C 1036.83,0.833333 1037.17,0.833333 1037.5,-0.5C 1047.17,-0.5 1056.83,-0.5 1066.5,-0.5C 1066.83,0.833333 1067.17,0.833333 1067.5,-0.5C 1067.83,-0.5 1068.17,-0.5 1068.5,-0.5C 1078.1,1.22019 1087.76,3.22019 1097.5,5.5C 1099.44,7.16276 1101.77,7.82943 1104.5,7.5C 1125.81,13.7703 1146.81,20.937 1167.5,29C 1362.87,106.124 1558.54,182.457 1754.5,258C 1764.48,262.873 1772.65,269.707 1779,278.5C 1780.83,282.439 1781.33,286.439 1780.5,290.5C 1777.31,297.891 1772.64,304.391 1766.5,310C 1746.15,325.52 1724.15,338.52 1700.5,349C 1677.83,359.333 1655.17,369.667 1632.5,380C 1492.05,440.48 1351.72,501.147 1211.5,562C 1171.5,579.831 1131.84,598.498 1092.5,618C 1041.29,640.908 989.953,641.241 938.5,619C 897.852,600.175 856.852,582.175 815.5,565C 663.489,502.495 511.822,439.161 360.5,375C 335.794,364.482 312.128,352.149 289.5,338C 281.667,332.833 275.167,326.333 270,318.5C 268.973,315.338 267.806,312.338 266.5,309.5C 266.626,301.783 269.626,295.45 275.5,290.5C 286.196,281.815 297.863,274.649 310.5,269C 422.651,224.587 534.985,180.753 647.5,137.5C 650.491,137.834 652.824,136.834 654.5,134.5C 754.265,95.1223 854.599,57.1223 955.5,20.5C 960.165,19.9431 964.498,18.6098 968.5,16.5C 974.486,13.6885 980.82,11.6885 987.5,10.5C 992.888,9.65349 998.221,8.48682 1003.5,7C 1004.06,6.61742 1004.39,6.11742 1004.5,5.5C 1014.91,3.21777 1025.24,1.21777 1035.5,-0.5 Z"/></g>
<g><path style="opacity:0.522" fill="#9e4537" d="M 1097.5,5.5 C 1100.07,5.72148 1102.4,6.38815 1104.5,7.5C 1101.77,7.82943 1099.44,7.16276 1097.5,5.5 Z"/></g>
<g><path style="opacity:0.753" fill="#a63a29" d="M 1004.5,5.5 C 1004.39,6.11742 1004.06,6.61742 1003.5,7C 998.221,8.48682 992.888,9.65349 987.5,10.5C 992.894,8.26113 998.561,6.59447 1004.5,5.5 Z"/></g>
<g><path style="opacity:0.753" fill="#a73928" d="M 968.5,16.5 C 964.498,18.6098 960.165,19.9431 955.5,20.5C 959.502,18.3902 963.835,17.0569 968.5,16.5 Z"/></g>
<g><path style="opacity:1" fill="#f0a49d" d="M 947.5,82.5 C 945.784,82.3713 944.117,82.038 942.5,81.5C 941.475,81.1034 941.308,80.4368 942,79.5C 944.058,80.2291 945.891,81.2291 947.5,82.5 Z"/></g>
<g><path style="opacity:1" fill="#fefdfd" d="M 942.5,81.5 C 944.117,82.038 945.784,82.3713 947.5,82.5C 981.01,95.5592 1014.68,108.226 1048.5,120.5C 1051.35,120.448 1053.68,119.448 1055.5,117.5C 1069.4,113.755 1083.06,109.422 1096.5,104.5C 1100.71,104.323 1104.37,102.99 1107.5,100.5C 1110.11,99.6295 1112.78,98.9628 1115.5,98.5C 1118.78,98.0719 1121.78,97.0719 1124.5,95.5C 1130.35,93.0496 1136.35,90.883 1142.5,89C 1143.94,88.2195 1145.28,88.3861 1146.5,89.5C 1137.72,108.726 1129.22,128.059 1121,147.5C 1120.01,149.447 1119.68,151.447 1120,153.5C 1133.69,158.809 1147.52,163.809 1161.5,168.5C 1163.32,170.448 1165.65,171.448 1168.5,171.5C 1180.69,176.01 1193.02,180.343 1205.5,184.5C 1207.32,186.448 1209.65,187.448 1212.5,187.5C 1214.42,188.363 1216.42,189.029 1218.5,189.5C 1214.5,190.5 1210.5,191.5 1206.5,192.5C 1188.47,193.903 1170.47,195.57 1152.5,197.5C 1148.63,197.185 1144.96,197.518 1141.5,198.5C 1128.55,200.157 1115.55,201.491 1102.5,202.5C 1098.63,202.185 1094.96,202.518 1091.5,203.5C 1090.5,203.414 1089.67,203.748 1089,204.5C 1081.07,224.106 1073.24,243.772 1065.5,263.5C 1063.46,264.911 1062.46,266.911 1062.5,269.5C 1062.21,271.423 1061.37,273.09 1060,274.5C 1043.75,248.798 1028.25,222.798 1013.5,196.5C 1013.39,195.883 1013.06,195.383 1012.5,195C 1009.52,194.502 1006.52,194.335 1003.5,194.5C 994.768,194.383 986.102,193.717 977.5,192.5C 970.049,191.028 962.382,190.361 954.5,190.5C 951.375,189.521 948.042,189.187 944.5,189.5C 930.078,188.644 916.078,187.644 902.5,186.5C 901.391,185.71 900.058,185.21 898.5,185C 894.179,184.501 889.846,184.334 885.5,184.5C 880.786,184.647 876.119,184.314 871.5,183.5C 869.167,182.833 866.833,182.167 864.5,181.5C 884.703,173.766 905.036,166.433 925.5,159.5C 928.346,159.448 930.68,158.448 932.5,156.5C 945.742,151.641 959.076,146.974 972.5,142.5C 972.66,140.801 972.494,139.134 972,137.5C 961.914,118.996 952.081,100.329 942.5,81.5 Z"/></g>
<g><path style="opacity:1" fill="#f0a59e" d="M 1124.5,95.5 C 1121.78,97.0719 1118.78,98.0719 1115.5,98.5C 1118.08,96.5275 1121.08,95.5275 1124.5,95.5 Z"/></g>
<g><path style="opacity:1" fill="#f0a69f" d="M 1107.5,100.5 C 1104.37,102.99 1100.71,104.323 1096.5,104.5C 1099.94,102.796 1103.61,101.462 1107.5,100.5 Z"/></g>
<g><path style="opacity:1" fill="#f0a29b" d="M 1055.5,117.5 C 1053.68,119.448 1051.35,120.448 1048.5,120.5C 1050.51,118.935 1052.84,117.935 1055.5,117.5 Z"/></g>
<g><path style="opacity:0.753" fill="#a03e2e" d="M 654.5,134.5 C 652.824,136.834 650.491,137.834 647.5,137.5C 649.649,136.264 651.982,135.264 654.5,134.5 Z"/></g>
<g><path style="opacity:1" fill="#f0a29b" d="M 932.5,156.5 C 930.68,158.448 928.346,159.448 925.5,159.5C 927.509,157.935 929.843,156.935 932.5,156.5 Z"/></g>
<g><path style="opacity:1" fill="#f0a29b" d="M 1161.5,168.5 C 1164.16,168.935 1166.49,169.935 1168.5,171.5C 1165.65,171.448 1163.32,170.448 1161.5,168.5 Z"/></g>
<g><path style="opacity:1" fill="#f1aba4" d="M 864.5,181.5 C 866.833,182.167 869.167,182.833 871.5,183.5C 868.278,183.892 865.278,183.392 862.5,182C 863.094,181.536 863.761,181.369 864.5,181.5 Z"/></g>
<g><path style="opacity:1" fill="#ec8c84" d="M 885.5,184.5 C 889.846,184.334 894.179,184.501 898.5,185C 900.058,185.21 901.391,185.71 902.5,186.5C 896.627,186.404 890.96,185.737 885.5,184.5 Z"/></g>
<g><path style="opacity:1" fill="#f0a29b" d="M 1205.5,184.5 C 1208.16,184.935 1210.49,185.935 1212.5,187.5C 1209.65,187.448 1207.32,186.448 1205.5,184.5 Z"/></g>
<g><path style="opacity:1" fill="#f1a7a1" d="M 944.5,189.5 C 948.042,189.187 951.375,189.521 954.5,190.5C 953.883,190.611 953.383,190.944 953,191.5C 950.061,190.872 947.228,190.205 944.5,189.5 Z"/></g>
<g><path style="opacity:1" fill="#ef9d96" d="M 1218.5,189.5 C 1219.38,189.369 1220.04,189.702 1220.5,190.5C 1215.93,191.82 1211.26,192.487 1206.5,192.5C 1210.5,191.5 1214.5,190.5 1218.5,189.5 Z"/></g>
<g><path style="opacity:1" fill="#ed958e" d="M 954.5,190.5 C 962.382,190.361 970.049,191.028 977.5,192.5C 976.883,192.611 976.383,192.944 976,193.5C 968.726,192.586 961.559,191.586 954.5,190.5 Z"/></g>
<g><path style="opacity:1" fill="#f1a7a0" d="M 1003.5,194.5 C 1006.52,194.335 1009.52,194.502 1012.5,195C 1013.06,195.383 1013.39,195.883 1013.5,196.5C 1010.02,195.99 1006.68,195.323 1003.5,194.5 Z"/></g>
<g><path style="opacity:1" fill="#ec8d85" d="M 1141.5,198.5 C 1144.96,197.518 1148.63,197.185 1152.5,197.5C 1149.44,198.201 1146.27,198.868 1143,199.5C 1142.62,198.944 1142.12,198.611 1141.5,198.5 Z"/></g>
<g><path style="opacity:1" fill="#ec8d85" d="M 1091.5,203.5 C 1094.96,202.518 1098.63,202.185 1102.5,202.5C 1099.44,203.201 1096.27,203.868 1093,204.5C 1092.62,203.944 1092.12,203.611 1091.5,203.5 Z"/></g>
<g><path style="opacity:1" fill="#af1a0c" d="M 1375.5,210.5 C 1375.65,264.351 1375.65,318.184 1375.5,372C 1376.04,372.717 1376.71,373.217 1377.5,373.5C 1370.02,376.665 1362.36,379.665 1354.5,382.5C 1285.46,355.431 1216.46,328.265 1147.5,301C 1223.3,271.214 1299.3,241.048 1375.5,210.5 Z"/></g>
<g><path style="opacity:1" fill="#7b0400" d="M 1375.5,210.5 C 1444.71,237.18 1513.71,264.346 1582.5,292C 1514.1,319.207 1445.77,346.373 1377.5,373.5C 1376.71,373.217 1376.04,372.717 1375.5,372C 1375.65,318.184 1375.65,264.351 1375.5,210.5 Z"/></g>
<g><path style="opacity:1" fill="#fefefe" d="M 762.5,232.5 C 779.31,234.302 795.977,236.968 812.5,240.5C 815.452,242.41 818.786,243.41 822.5,243.5C 835.032,247.233 847.365,251.566 859.5,256.5C 860.733,258.796 862.733,260.13 865.5,260.5C 877.952,266.125 888.118,274.459 896,285.5C 903.031,299.681 901.697,313.015 892,325.5C 880.371,337.391 866.871,346.391 851.5,352.5C 849.62,352.229 848.287,352.896 847.5,354.5C 845.167,355.167 842.833,355.833 840.5,356.5C 838.62,356.229 837.287,356.896 836.5,358.5C 824.955,361.97 813.289,364.97 801.5,367.5C 798.447,367.111 795.78,367.777 793.5,369.5C 783.175,370.943 772.842,372.277 762.5,373.5C 758.958,373.187 755.625,373.521 752.5,374.5C 736.662,374.826 720.995,375.493 705.5,376.5C 700.595,375.555 695.595,375.221 690.5,375.5C 687.833,374.167 685.167,374.167 682.5,375.5C 682.167,375.5 681.833,375.5 681.5,375.5C 676.084,373.883 670.417,373.216 664.5,373.5C 656.709,373.148 649.042,372.148 641.5,370.5C 638.091,369.097 634.425,368.43 630.5,368.5C 624.245,367.785 618.245,366.451 612.5,364.5C 610.485,363.076 608.152,362.41 605.5,362.5C 603.079,362.122 600.746,361.455 598.5,360.5C 595.785,358.928 592.785,357.928 589.5,357.5C 585.421,356.363 581.421,355.029 577.5,353.5C 576.713,351.896 575.38,351.229 573.5,351.5C 566.004,348.925 559.337,345.091 553.5,340C 550.313,338.652 547.313,336.986 544.5,335C 541.667,331.5 538.5,328.333 535,325.5C 524.231,310.971 523.897,296.305 534,281.5C 545.78,269.179 559.614,259.679 575.5,253C 586.115,248.407 597.115,244.907 608.5,242.5C 611.428,242.435 614.095,241.768 616.5,240.5C 620.921,238.898 625.588,237.898 630.5,237.5C 633.553,237.889 636.22,237.223 638.5,235.5C 647.118,234.126 655.785,233.126 664.5,232.5C 668.042,232.813 671.375,232.479 674.5,231.5C 703.858,229.962 733.191,230.295 762.5,232.5 Z"/></g>
<g><path style="opacity:1" fill="#f0a49d" d="M 762.5,232.5 C 733.191,230.295 703.858,229.962 674.5,231.5C 678.565,230.807 682.732,230.14 687,229.5C 704.667,229.5 722.333,229.5 740,229.5C 747.633,230.194 755.133,231.194 762.5,232.5 Z"/></g>
<g><path style="opacity:1" fill="#f1a7a1" d="M 674.5,231.5 C 671.375,232.479 668.042,232.813 664.5,232.5C 667.228,231.795 670.061,231.128 673,230.5C 673.383,231.056 673.883,231.389 674.5,231.5 Z"/></g>
<g><path style="opacity:1" fill="#efa098" d="M 638.5,235.5 C 636.22,237.223 633.553,237.889 630.5,237.5C 632.905,236.232 635.572,235.565 638.5,235.5 Z"/></g>
<g><path style="opacity:1" fill="#f1a8a2" d="M 616.5,240.5 C 614.095,241.768 611.428,242.435 608.5,242.5C 610.838,240.96 613.505,240.294 616.5,240.5 Z"/></g>
<g><path style="opacity:1" fill="#ef9f98" d="M 812.5,240.5 C 816.116,240.899 819.45,241.899 822.5,243.5C 818.786,243.41 815.452,242.41 812.5,240.5 Z"/></g>
<g><path style="opacity:1" fill="#f1aca6" d="M 859.5,256.5 C 861.882,257.351 863.882,258.684 865.5,260.5C 862.733,260.13 860.733,258.796 859.5,256.5 Z"/></g>
<g><path style="opacity:1" fill="#f0a49d" d="M 1065.5,263.5 C 1065.01,265.819 1064.01,267.819 1062.5,269.5C 1062.46,266.911 1063.46,264.911 1065.5,263.5 Z"/></g>
<g><path style="opacity:1" fill="#a61808" d="M 1780.5,290.5 C 1780,342.851 1779.16,395.184 1778,447.5C 1772.28,456.558 1765.11,464.391 1756.5,471C 1742.02,481.083 1726.68,489.916 1710.5,497.5C 1709.7,497.957 1709.37,498.624 1709.5,499.5C 1708.85,498.909 1708.18,498.243 1707.5,497.5C 1678.92,511.863 1649.92,525.363 1620.5,538C 1490.92,594.195 1361.25,650.195 1231.5,706C 1187.62,725.273 1144.29,745.606 1101.5,767C 1077.34,777.831 1052.17,784.998 1026,788.5C 996.885,789.68 968.718,784.514 941.5,773C 907.099,757.134 872.432,741.801 837.5,727C 705.752,672.529 574.086,617.862 442.5,563C 406.984,548.273 371.817,532.773 337,516.5C 335.461,519.521 332.961,520.854 329.5,520.5C 331.382,519.249 333.382,518.082 335.5,517C 315.092,508.3 296.092,497.3 278.5,484C 274.065,479.622 270.232,474.788 267,469.5C 266.5,416.168 266.333,362.834 266.5,309.5C 267.806,312.338 268.973,315.338 270,318.5C 275.167,326.333 281.667,332.833 289.5,338C 312.128,352.149 335.794,364.482 360.5,375C 511.822,439.161 663.489,502.495 815.5,565C 856.852,582.175 897.852,600.175 938.5,619C 989.953,641.241 1041.29,640.908 1092.5,618C 1131.84,598.498 1171.5,579.831 1211.5,562C 1351.72,501.147 1492.05,440.48 1632.5,380C 1655.17,369.667 1677.83,359.333 1700.5,349C 1724.15,338.52 1746.15,325.52 1766.5,310C 1772.64,304.391 1777.31,297.891 1780.5,290.5 Z"/></g>
<g><path style="opacity:1" fill="#ec8d85" d="M 573.5,351.5 C 575.38,351.229 576.713,351.896 577.5,353.5C 575.847,353.34 574.514,352.674 573.5,351.5 Z"/></g>
<g><path style="opacity:1" fill="#ec8d85" d="M 851.5,352.5 C 850.486,353.674 849.153,354.34 847.5,354.5C 848.287,352.896 849.62,352.229 851.5,352.5 Z"/></g>
<g><path style="opacity:1" fill="#ec8d85" d="M 840.5,356.5 C 839.486,357.674 838.153,358.34 836.5,358.5C 837.287,356.896 838.62,356.229 840.5,356.5 Z"/></g>
<g><path style="opacity:1" fill="#ee9a92" d="M 589.5,357.5 C 592.785,357.928 595.785,358.928 598.5,360.5C 595.084,360.472 592.084,359.472 589.5,357.5 Z"/></g>
<g><path style="opacity:1" fill="#f1aaa4" d="M 605.5,362.5 C 608.152,362.41 610.485,363.076 612.5,364.5C 609.848,364.59 607.515,363.924 605.5,362.5 Z"/></g>
<g><path style="opacity:1" fill="#f0a29b" d="M 801.5,367.5 C 799.039,368.531 796.373,369.198 793.5,369.5C 795.78,367.777 798.447,367.111 801.5,367.5 Z"/></g>
<g><path style="opacity:1" fill="#ed938b" d="M 630.5,368.5 C 634.425,368.43 638.091,369.097 641.5,370.5C 641.565,370.938 641.399,371.272 641,371.5C 637.39,370.552 633.89,369.552 630.5,368.5 Z"/></g>
<g><path style="opacity:1" fill="#ee9992" d="M 664.5,373.5 C 670.417,373.216 676.084,373.883 681.5,375.5C 675.733,376.108 670.066,375.441 664.5,373.5 Z"/></g>
<g><path style="opacity:1" fill="#ec8e86" d="M 752.5,374.5 C 755.625,373.521 758.958,373.187 762.5,373.5C 759.772,374.205 756.939,374.872 754,375.5C 753.617,374.944 753.117,374.611 752.5,374.5 Z"/></g>
<g><path style="opacity:1" fill="#f2afa9" d="M 682.5,375.5 C 685.167,374.167 687.833,374.167 690.5,375.5C 687.976,375.957 685.309,375.957 682.5,375.5 Z"/></g>
<g><path style="opacity:1" fill="#ee9890" d="M 752.5,374.5 C 748.101,375.191 743.601,375.858 739,376.5C 728.043,376.456 716.876,376.456 705.5,376.5C 720.995,375.493 736.662,374.826 752.5,374.5 Z"/></g>
<g><path style="opacity:1" fill="#fefdfd" d="M 1033.5,526.5 C 1032.71,524.896 1031.38,524.229 1029.5,524.5C 1026.83,523.499 1024.16,522.499 1021.5,521.5C 1020.71,519.896 1019.38,519.229 1017.5,519.5C 1010.32,516.2 1002.98,513.2 995.5,510.5C 994.713,508.896 993.38,508.229 991.5,508.5C 987.088,507.03 982.755,505.363 978.5,503.5C 977.713,501.896 976.38,501.229 974.5,501.5C 971.167,500.167 967.833,498.833 964.5,497.5C 963.713,495.896 962.38,495.229 960.5,495.5C 957.673,494.892 955.007,493.892 952.5,492.5C 951.713,490.896 950.38,490.229 948.5,490.5C 945.977,489.199 943.31,488.199 940.5,487.5C 939.713,485.896 938.38,485.229 936.5,485.5C 933.053,484.353 929.72,483.02 926.5,481.5C 925.713,479.896 924.38,479.229 922.5,479.5C 919.673,478.892 917.007,477.892 914.5,476.5C 913.713,474.896 912.38,474.229 910.5,474.5C 907.977,473.199 905.31,472.199 902.5,471.5C 901.713,469.896 900.38,469.229 898.5,469.5C 885.382,464.44 872.382,459.107 859.5,453.5C 858.713,451.896 857.38,451.229 855.5,451.5C 847.956,448.878 840.622,445.878 833.5,442.5C 832.713,440.896 831.38,440.229 829.5,440.5C 826.977,439.199 824.31,438.199 821.5,437.5C 820.713,435.896 819.38,435.229 817.5,435.5C 814.828,434.499 812.162,433.499 809.5,432.5C 811.5,431.833 813.5,431.167 815.5,430.5C 821.66,428.924 828.327,427.924 835.5,427.5C 841.16,427.559 846.494,426.559 851.5,424.5C 859.121,423.221 866.788,422.221 874.5,421.5C 881.078,421.236 887.411,420.236 893.5,418.5C 900.046,416.946 906.713,415.946 913.5,415.5C 918.076,415.562 922.409,414.895 926.5,413.5C 934.971,411.756 943.638,410.423 952.5,409.5C 956.16,409.841 959.493,409.175 962.5,407.5C 968.116,406.46 973.783,405.793 979.5,405.5C 985.137,405.415 990.471,404.415 995.5,402.5C 1003.12,401.221 1010.79,400.221 1018.5,399.5C 1024.16,399.559 1029.49,398.559 1034.5,396.5C 1042.12,395.221 1049.79,394.221 1057.5,393.5C 1063.16,393.559 1068.49,392.559 1073.5,390.5C 1081.15,389.392 1088.82,388.392 1096.5,387.5C 1100.16,387.841 1103.49,387.175 1106.5,385.5C 1116.14,383.98 1125.8,382.647 1135.5,381.5C 1140.08,381.562 1144.41,380.895 1148.5,379.5C 1151.74,378.42 1155.08,378.253 1158.5,379C 1123.64,429.854 1088.8,480.688 1054,531.5C 1053.26,532.574 1052.26,533.241 1051,533.5C 1044.97,531.566 1039.14,529.233 1033.5,526.5 Z"/></g>
<g><path style="opacity:1" fill="#f0a29b" d="M 1148.5,379.5 C 1144.41,380.895 1140.08,381.562 1135.5,381.5C 1139.56,380.456 1143.73,379.456 1148,378.5C 1148.4,378.728 1148.57,379.062 1148.5,379.5 Z"/></g>
<g><path style="opacity:1" fill="#ef9e97" d="M 1106.5,385.5 C 1103.49,387.175 1100.16,387.841 1096.5,387.5C 1099.63,386.419 1102.96,385.753 1106.5,385.5 Z"/></g>
<g><path style="opacity:1" fill="#f0a19a" d="M 1073.5,390.5 C 1068.49,392.559 1063.16,393.559 1057.5,393.5C 1062.61,391.956 1067.94,390.956 1073.5,390.5 Z"/></g>
<g><path style="opacity:1" fill="#f0a29c" d="M 1034.5,396.5 C 1029.49,398.559 1024.16,399.559 1018.5,399.5C 1023.61,397.956 1028.94,396.956 1034.5,396.5 Z"/></g>
<g><path style="opacity:1" fill="#f0a29b" d="M 995.5,402.5 C 990.471,404.415 985.137,405.415 979.5,405.5C 984.606,403.956 989.939,402.956 995.5,402.5 Z"/></g>
<g><path style="opacity:1" fill="#ef9d95" d="M 962.5,407.5 C 959.493,409.175 956.16,409.841 952.5,409.5C 955.589,408.215 958.922,407.549 962.5,407.5 Z"/></g>
<g><path style="opacity:1" fill="#f0a19a" d="M 926.5,413.5 C 922.409,414.895 918.076,415.562 913.5,415.5C 917.202,414.347 921.035,413.347 925,412.5C 925.383,413.056 925.883,413.389 926.5,413.5 Z"/></g>
<g><path style="opacity:1" fill="#f0a19a" d="M 893.5,418.5 C 887.411,420.236 881.078,421.236 874.5,421.5C 880.543,420.035 886.71,418.701 893,417.5C 893.399,417.728 893.565,418.062 893.5,418.5 Z"/></g>
<g><path style="opacity:1" fill="#f0a29c" d="M 851.5,424.5 C 846.494,426.559 841.16,427.559 835.5,427.5C 840.606,425.956 845.939,424.956 851.5,424.5 Z"/></g>
<g><path style="opacity:1" fill="#f0a39c" d="M 815.5,430.5 C 813.5,431.167 811.5,431.833 809.5,432.5C 808.957,432.44 808.624,432.107 808.5,431.5C 810.918,430.203 813.251,429.87 815.5,430.5 Z"/></g>
<g><path style="opacity:1" fill="#ec8d85" d="M 817.5,435.5 C 819.38,435.229 820.713,435.896 821.5,437.5C 819.847,437.34 818.514,436.674 817.5,435.5 Z"/></g>
<g><path style="opacity:1" fill="#ec8d85" d="M 829.5,440.5 C 831.38,440.229 832.713,440.896 833.5,442.5C 831.847,442.34 830.514,441.674 829.5,440.5 Z"/></g>
<g><path style="opacity:1" fill="#ec8d85" d="M 855.5,451.5 C 857.38,451.229 858.713,451.896 859.5,453.5C 857.847,453.34 856.514,452.674 855.5,451.5 Z"/></g>
<g><path style="opacity:1" fill="#ec8d85" d="M 898.5,469.5 C 900.38,469.229 901.713,469.896 902.5,471.5C 900.847,471.34 899.514,470.674 898.5,469.5 Z"/></g>
<g><path style="opacity:1" fill="#ec8d85" d="M 910.5,474.5 C 912.38,474.229 913.713,474.896 914.5,476.5C 912.847,476.34 911.514,475.674 910.5,474.5 Z"/></g>
<g><path style="opacity:1" fill="#ec8d85" d="M 922.5,479.5 C 924.38,479.229 925.713,479.896 926.5,481.5C 924.847,481.34 923.514,480.674 922.5,479.5 Z"/></g>
<g><path style="opacity:1" fill="#ec8d85" d="M 936.5,485.5 C 938.38,485.229 939.713,485.896 940.5,487.5C 938.847,487.34 937.514,486.674 936.5,485.5 Z"/></g>
<g><path style="opacity:1" fill="#ec8d85" d="M 948.5,490.5 C 950.38,490.229 951.713,490.896 952.5,492.5C 950.847,492.34 949.514,491.674 948.5,490.5 Z"/></g>
<g><path style="opacity:1" fill="#ec8d85" d="M 960.5,495.5 C 962.38,495.229 963.713,495.896 964.5,497.5C 962.847,497.34 961.514,496.674 960.5,495.5 Z"/></g>
<g><path style="opacity:1" fill="#d82719" d="M 1709.5,499.5 C 1731.31,505.487 1751.64,514.654 1770.5,527C 1774.87,530.255 1777.87,534.422 1779.5,539.5C 1779.65,544.214 1779.31,548.881 1778.5,553.5C 1778.5,554.167 1778.5,554.833 1778.5,555.5C 1767.17,568.651 1753.84,579.484 1738.5,588C 1705.75,605.042 1672.41,621.042 1638.5,636C 1495.17,698 1351.83,760 1208.5,822C 1170.23,839.47 1132.23,857.47 1094.5,876C 1064.56,889.189 1033.72,895.356 1002,894.5C 978.616,891.695 956.116,885.528 934.5,876C 904.736,862.117 874.736,848.784 844.5,836C 720.914,784.471 597.248,733.138 473.5,682C 430.751,663.861 388.085,645.528 345.5,627C 321.395,616.79 299.062,603.79 278.5,588C 273.864,583.229 270.364,577.729 268,571.5C 268.034,566.814 268.534,562.148 269.5,557.5C 270.44,555.388 271.606,553.388 273,551.5C 285.405,540.212 299.572,531.879 315.5,526.5C 317.967,526.245 319.967,525.245 321.5,523.5C 324.076,522.512 326.743,521.512 329.5,520.5C 332.961,520.854 335.461,519.521 337,516.5C 371.817,532.773 406.984,548.273 442.5,563C 574.086,617.862 705.752,672.529 837.5,727C 872.432,741.801 907.099,757.134 941.5,773C 968.718,784.514 996.885,789.68 1026,788.5C 1052.17,784.998 1077.34,777.831 1101.5,767C 1144.29,745.606 1187.62,725.273 1231.5,706C 1361.25,650.195 1490.92,594.195 1620.5,538C 1649.92,525.363 1678.92,511.863 1707.5,497.5C 1708.18,498.243 1708.85,498.909 1709.5,499.5 Z"/></g>
<g><path style="opacity:1" fill="#ec8d85" d="M 974.5,501.5 C 976.38,501.229 977.713,501.896 978.5,503.5C 976.847,503.34 975.514,502.674 974.5,501.5 Z"/></g>
<g><path style="opacity:1" fill="#ec8d85" d="M 991.5,508.5 C 993.38,508.229 994.713,508.896 995.5,510.5C 993.847,510.34 992.514,509.674 991.5,508.5 Z"/></g>
<g><path style="opacity:1" fill="#ec8d85" d="M 1017.5,519.5 C 1019.38,519.229 1020.71,519.896 1021.5,521.5C 1019.85,521.34 1018.51,520.674 1017.5,519.5 Z"/></g>
<g><path style="opacity:0.753" fill="#a04031" d="M 321.5,523.5 C 319.967,525.245 317.967,526.245 315.5,526.5C 317.033,524.755 319.033,523.755 321.5,523.5 Z"/></g>
<g><path style="opacity:1" fill="#ec8d85" d="M 1029.5,524.5 C 1031.38,524.229 1032.71,524.896 1033.5,526.5C 1031.85,526.34 1030.51,525.674 1029.5,524.5 Z"/></g>
<g><path style="opacity:0.522" fill="#ae3726" d="M 1779.5,539.5 C 1781.83,544.254 1781.49,548.921 1778.5,553.5C 1779.31,548.881 1779.65,544.214 1779.5,539.5 Z"/></g>
<g><path style="opacity:1" fill="#a61808" d="M 1778.5,555.5 C 1778.98,606.205 1778.48,656.872 1777,707.5C 1773.26,715.472 1767.76,721.972 1760.5,727C 1747.07,736.039 1733.41,744.539 1719.5,752.5C 1556.61,824.591 1392.94,895.758 1228.5,966C 1183.14,986.18 1138.14,1007.18 1093.5,1029C 1064.49,1041.57 1034.65,1047.73 1004,1047.5C 984.633,1045.42 965.8,1040.92 947.5,1034C 903.999,1014.61 860.332,995.611 816.5,977C 652.119,908.472 487.786,839.972 323.5,771.5C 310.268,764.546 297.268,757.046 284.5,749C 276.164,743.004 269.664,735.504 265,726.5C 264.167,673.497 264.333,620.497 265.5,567.5C 266.27,563.839 267.603,560.505 269.5,557.5C 268.534,562.148 268.034,566.814 268,571.5C 270.364,577.729 273.864,583.229 278.5,588C 299.062,603.79 321.395,616.79 345.5,627C 388.085,645.528 430.751,663.861 473.5,682C 597.248,733.138 720.914,784.471 844.5,836C 874.736,848.784 904.736,862.117 934.5,876C 956.116,885.528 978.616,891.695 1002,894.5C 1033.72,895.356 1064.56,889.189 1094.5,876C 1132.23,857.47 1170.23,839.47 1208.5,822C 1351.83,760 1495.17,698 1638.5,636C 1672.41,621.042 1705.75,605.042 1738.5,588C 1753.84,579.484 1767.17,568.651 1778.5,555.5 Z"/></g>
<g><path style="opacity:1" fill="#d82719" d="M 1719.5,752.5 C 1737.81,757.988 1754.81,766.155 1770.5,777C 1779.76,784.329 1782.43,793.496 1778.5,804.5C 1773.74,811.1 1768.07,816.933 1761.5,822C 1740.13,836.694 1717.46,849.361 1693.5,860C 1535.25,929.973 1376.58,998.973 1217.5,1067C 1176.84,1085.16 1136.5,1104.16 1096.5,1124C 1070.28,1135.93 1042.78,1142.43 1014,1143.5C 991.764,1143.16 970.264,1138.99 949.5,1131C 908.916,1113.14 868.249,1095.47 827.5,1078C 669.761,1013.31 512.428,947.642 355.5,881C 330.964,870.734 307.63,858.401 285.5,844C 277.521,838.357 271.355,831.191 267,822.5C 266.501,818.848 266.335,815.182 266.5,811.5C 266.46,808.575 267.293,805.909 269,803.5C 284.448,788.354 302.615,777.687 323.5,771.5C 487.786,839.972 652.119,908.472 816.5,977C 860.332,995.611 903.999,1014.61 947.5,1034C 965.8,1040.92 984.633,1045.42 1004,1047.5C 1034.65,1047.73 1064.49,1041.57 1093.5,1029C 1138.14,1007.18 1183.14,986.18 1228.5,966C 1392.94,895.758 1556.61,824.591 1719.5,752.5 Z"/></g>
<g><path style="opacity:1" fill="#a61808" d="M 1778.5,804.5 C 1778.98,855.205 1778.48,905.872 1777,956.5C 1772.63,963.88 1767.13,970.38 1760.5,976C 1744.29,987.274 1727.29,997.274 1709.5,1006C 1694.62,1013.27 1679.62,1020.27 1664.5,1027C 1521.42,1089.54 1378.09,1151.54 1234.5,1213C 1187,1234.05 1140,1256.05 1093.5,1279C 1067.99,1290.11 1041.33,1295.95 1013.5,1296.5C 997.412,1297.04 981.412,1294.87 965.5,1290C 774.082,1209.63 582.415,1129.63 390.5,1050C 370.284,1040.73 349.951,1031.73 329.5,1023C 315.211,1015.86 301.211,1008.19 287.5,1000C 281.727,996.064 276.394,991.564 271.5,986.5C 268.704,983.204 266.537,979.537 265,975.5C 264.333,922.5 264.333,869.5 265,816.5C 265.198,814.618 265.698,812.952 266.5,811.5C 266.335,815.182 266.501,818.848 267,822.5C 271.355,831.191 277.521,838.357 285.5,844C 307.63,858.401 330.964,870.734 355.5,881C 512.428,947.642 669.761,1013.31 827.5,1078C 868.249,1095.47 908.916,1113.14 949.5,1131C 970.264,1138.99 991.764,1143.16 1014,1143.5C 1042.78,1142.43 1070.28,1135.93 1096.5,1124C 1136.5,1104.16 1176.84,1085.16 1217.5,1067C 1376.58,998.973 1535.25,929.973 1693.5,860C 1717.46,849.361 1740.13,836.694 1761.5,822C 1768.07,816.933 1773.74,811.1 1778.5,804.5 Z"/></g>
<g><path style="opacity:0.997" fill="#636365" d="M 1315.5,2047.5 C 1308.17,2047.5 1300.83,2047.5 1293.5,2047.5C 1274.77,2043.04 1260.6,2032.37 1251,2015.5C 1249.52,2011.57 1248.36,2007.57 1247.5,2003.5C 1209.69,2026.9 1168.69,2041.56 1124.5,2047.5C 1124.17,2047.5 1123.83,2047.5 1123.5,2047.5C 1123.17,2046.17 1122.83,2046.17 1122.5,2047.5C 1107.83,2047.5 1093.17,2047.5 1078.5,2047.5C 988.199,2035.94 920.032,1990.94 874,1912.5C 827.282,1821.06 828.615,1730.4 878,1640.5C 920.435,1571 981.935,1528.83 1062.5,1514C 1119.87,1506.01 1173.87,1516.01 1224.5,1544C 1230.75,1548.04 1236.92,1552.21 1243,1556.5C 1243.03,1484.48 1243.69,1412.48 1245,1340.5C 1255.61,1307.77 1278.11,1292.94 1312.5,1296C 1339.78,1301.62 1355.95,1318.12 1361,1345.5C 1361.25,1562.17 1361.91,1778.84 1363,1995.5C 1358.04,2022.95 1342.2,2040.29 1315.5,2047.5 Z M 1088.5,1628.5 C 1148.86,1625.6 1194.69,1650.27 1226,1702.5C 1246.15,1741.88 1250.15,1782.88 1238,1825.5C 1223.02,1868.48 1194.85,1899.31 1153.5,1918C 1087.48,1939.21 1032.65,1923.05 989,1869.5C 960.261,1827.06 952.928,1781.06 967,1731.5C 982.37,1686.13 1012.2,1654.3 1056.5,1636C 1067.04,1632.31 1077.7,1629.81 1088.5,1628.5 Z"/></g>
<g><path style="opacity:0.995" fill="#636365" d="M 1499.5,1295.5 C 1530.49,1292.57 1552.33,1305.24 1565,1333.5C 1566.21,1338.11 1567.21,1342.78 1568,1347.5C 1569.13,1363.26 1568.46,1378.93 1566,1394.5C 1554.35,1425.75 1531.85,1439.25 1498.5,1435C 1473.09,1429.26 1457.26,1413.76 1451,1388.5C 1449.57,1376.17 1449.07,1364.67 1449.5,1354C 1452.05,1322.3 1468.71,1302.8 1499.5,1295.5 Z"/></g>
<g><path style="opacity:0.996" fill="#636365" d="M 545.5,1509.5 C 647.063,1506.86 725.563,1547.52 781,1631.5C 806.133,1674.03 819.133,1720.03 820,1769.5C 815.844,1796.32 800.344,1811.82 773.5,1816C 656.182,1817.15 538.849,1817.98 421.5,1818.5C 435.114,1870.61 467.114,1906.11 517.5,1925C 567.015,1940.96 615.015,1937.29 661.5,1914C 667.707,1910.39 673.373,1906.06 678.5,1901C 699.589,1889.33 721.256,1888.67 743.5,1899C 766.201,1918.74 770.701,1941.9 757,1968.5C 719.399,2006.89 673.899,2031.06 620.5,2041C 536.118,2057.99 460.451,2039.65 393.5,1986C 323.154,1923.01 291.987,1844.18 300,1749.5C 312.36,1654.89 359.86,1584.39 442.5,1538C 475.106,1521.85 509.44,1512.35 545.5,1509.5 Z M 716.5,1725.5 C 615.999,1725.83 515.665,1725.5 415.5,1724.5C 430.994,1672.17 464.661,1637.34 516.5,1620C 529.803,1616.54 543.303,1614.37 557,1613.5C 612.075,1617.7 657.408,1640.7 693,1682.5C 702.921,1695.67 710.754,1710.01 716.5,1725.5 Z"/></g>
<g><path style="opacity:0.997" fill="#636365" d="M 67.5,2047.5 C 60.5,2047.5 53.5,2047.5 46.5,2047.5C 22.2777,2040.94 6.611,2025.61 -0.5,2001.5C -0.5,1853.17 -0.5,1704.83 -0.5,1556.5C 9.42734,1524.85 31.094,1510.01 64.5,1512C 98.3724,1518.54 115.539,1539.04 116,1573.5C 121.873,1565.96 128.706,1559.46 136.5,1554C 165.702,1535.15 197.369,1522.15 231.5,1515C 251.475,1511.1 271.475,1510.77 291.5,1514C 325.585,1528.68 337.085,1553.84 326,1589.5C 317.12,1608.08 302.787,1619.41 283,1623.5C 254.018,1622.95 227.852,1631.12 204.5,1648C 194.775,1654.72 185.942,1662.55 178,1671.5C 150.12,1705.77 129.453,1744.11 116,1786.5C 115.667,1857.83 115.333,1929.17 115,2000.5C 108.568,2025.77 92.735,2041.43 67.5,2047.5 Z"/></g>
<g><path style="opacity:0.997" fill="#636365" d="M 1520.5,2047.5 C 1513.17,2047.5 1505.83,2047.5 1498.5,2047.5C 1476.36,2042.2 1461.2,2028.87 1453,2007.5C 1451.2,2001.07 1450.04,1994.57 1449.5,1988C 1450.83,1848.67 1450.83,1709.33 1449.5,1570C 1451.27,1544.12 1463.94,1525.79 1487.5,1515C 1516.35,1506.09 1540.18,1513.26 1559,1536.5C 1564.31,1544.73 1567.31,1553.73 1568,1563.5C 1568.67,1707.5 1568.67,1851.5 1568,1995.5C 1563.78,2023.54 1547.95,2040.88 1520.5,2047.5 Z"/></g>
<g><path style="opacity:0.997" fill="#636365" d="M 2044.5,1865.5 C 2044.5,1876.83 2044.5,1888.17 2044.5,1899.5C 2034.41,1951.83 2006.08,1991 1959.5,2017C 1928.64,2033.35 1895.97,2043.51 1861.5,2047.5C 1847.5,2047.5 1833.5,2047.5 1819.5,2047.5C 1754.91,2040.03 1697.58,2015.86 1647.5,1975C 1627.29,1954.14 1622.45,1930.64 1633,1904.5C 1648.04,1876.81 1670.21,1865.98 1699.5,1872C 1704.33,1873.61 1709,1875.61 1713.5,1878C 1742.4,1902.62 1775.4,1919.62 1812.5,1929C 1848.41,1934.96 1882.08,1927.96 1913.5,1908C 1920.55,1901.38 1925.72,1893.55 1929,1884.5C 1930.46,1876.95 1929.12,1869.95 1925,1863.5C 1906.92,1848.71 1886.42,1838.54 1863.5,1833C 1838.58,1827.3 1813.58,1821.97 1788.5,1817C 1753.71,1809.2 1722.04,1794.86 1693.5,1774C 1646.17,1735.25 1630.67,1686.08 1647,1626.5C 1656.97,1598.38 1673.47,1574.88 1696.5,1556C 1742.59,1522.55 1794.26,1507.89 1851.5,1512C 1891.58,1515.58 1928.91,1527.58 1963.5,1548C 1977.34,1556.75 1991,1565.75 2004.5,1575C 2024.82,1597.54 2028.65,1622.7 2016,1650.5C 1999.33,1672.57 1977.5,1680.07 1950.5,1673C 1935.67,1665.5 1921.34,1657.16 1907.5,1648C 1885.42,1634.87 1861.58,1627.7 1836,1626.5C 1809.19,1626.33 1785.35,1634.49 1764.5,1651C 1750.52,1664.53 1751.18,1677.19 1766.5,1689C 1774.44,1693.8 1782.77,1697.8 1791.5,1701C 1809.4,1706.64 1827.4,1711.64 1845.5,1716C 1894.17,1724 1939.5,1740.66 1981.5,1766C 2015.78,1790.78 2036.78,1823.95 2044.5,1865.5 Z"/></g>
<g><path style="opacity:0.153" fill="#7a5453" d="M 415.5,1724.5 C 515.665,1725.5 615.999,1725.83 716.5,1725.5C 615.999,1726.83 515.333,1726.83 414.5,1725.5C 414.624,1724.89 414.957,1724.56 415.5,1724.5 Z"/></g>
</svg>
